<svg xmlns="http://www.w3.org/2000/svg" width="1600" height="900" viewBox="0 0 1600 900" fill="none">
  <defs>
    <linearGradient id="bg" x1="0" y1="0" x2="1" y2="1">
      <stop offset="0" stop-color="#0f172a"/>
      <stop offset="1" stop-color="#0f766e"/>
    </linearGradient>
    <linearGradient id="floor" x1="0" y1="0" x2="0" y2="1">
      <stop offset="0" stop-color="#e0f2fe" stop-opacity="0.9"/>
      <stop offset="1" stop-color="#bfdbfe" stop-opacity="0.9"/>
    </linearGradient>
  </defs>
  <rect width="1600" height="900" fill="url(#bg)"/>
  <rect y="600" width="1600" height="300" fill="url(#floor)"/>
  <circle cx="190" cy="170" r="56" fill="#fde68a"/>
  <circle cx="430" cy="155" r="48" fill="#fca5a5"/>
  <circle cx="690" cy="165" r="52" fill="#a7f3d0"/>
  <circle cx="930" cy="160" r="50" fill="#93c5fd"/>
  <circle cx="1170" cy="165" r="48" fill="#c4b5fd"/>
  <circle cx="1410" cy="170" r="54" fill="#f9a8d4"/>
  <g transform="translate(230 260)">
    <circle cx="0" cy="0" r="36" fill="#f8fafc"/>
    <rect x="-22" y="42" width="44" height="110" rx="18" fill="#f8fafc"/>
    <path d="M-42 120 Q0 85 42 120" stroke="#f8fafc" stroke-width="20" fill="none"/>
    <path d="M-45 -8 L0 -30 L45 -8 L0 14 Z" fill="#111827"/>
    <path d="M34 -2 L58 12" stroke="#111827" stroke-width="4"/>
    <circle cx="59" cy="13" r="6" fill="#fbbf24"/>
  </g>
  <g transform="translate(520 250)">
    <circle cx="0" cy="0" r="34" fill="#f8fafc"/>
    <rect x="-20" y="40" width="40" height="102" rx="16" fill="#f8fafc"/>
    <path d="M-38 112 Q0 82 38 112" stroke="#f8fafc" stroke-width="18" fill="none"/>
    <path d="M-42 -8 L0 -28 L42 -8 L0 12 Z" fill="#111827"/>
  </g>
  <g transform="translate(810 270)">
    <circle cx="0" cy="0" r="36" fill="#f8fafc"/>
    <rect x="-22" y="42" width="44" height="112" rx="18" fill="#f8fafc"/>
    <path d="M-42 120 Q0 86 42 120" stroke="#f8fafc" stroke-width="20" fill="none"/>
    <path d="M-45 -8 L0 -30 L45 -8 L0 14 Z" fill="#111827"/>
    <path d="M-34 -2 L-58 12" stroke="#111827" stroke-width="4"/>
    <circle cx="-59" cy="13" r="6" fill="#fbbf24"/>
  </g>
  <g transform="translate(1090 255)">
    <circle cx="0" cy="0" r="35" fill="#f8fafc"/>
    <rect x="-21" y="41" width="42" height="108" rx="17" fill="#f8fafc"/>
    <path d="M-40 116 Q0 84 40 116" stroke="#f8fafc" stroke-width="19" fill="none"/>
    <path d="M-44 -8 L0 -29 L44 -8 L0 13 Z" fill="#111827"/>
  </g>
  <g transform="translate(1360 265)">
    <circle cx="0" cy="0" r="35" fill="#f8fafc"/>
    <rect x="-21" y="41" width="42" height="106" rx="17" fill="#f8fafc"/>
    <path d="M-40 114 Q0 84 40 114" stroke="#f8fafc" stroke-width="19" fill="none"/>
    <path d="M-44 -8 L0 -29 L44 -8 L0 13 Z" fill="#111827"/>
  </g>
</svg>
